<svg width="15" height="16" viewBox="0 0 15 16" fill="none" xmlns="http://www.w3.org/2000/svg">
<path d="M6 11H9C9.2125 11 9.39075 10.928 9.53475 10.784C9.67825 10.6405 9.75 10.4625 9.75 10.25V9.48125C9.75 9.26875 9.67825 9.09375 9.53475 8.95625C9.39075 8.81875 9.2125 8.75 9 8.75C8.7875 8.75 8.6095 8.82175 8.466 8.96525C8.322 9.10925 8.25 9.2875 8.25 9.5H6.75V6.5H8.25V6.51875C8.25 6.73125 8.322 6.90625 8.466 7.04375C8.6095 7.18125 8.7875 7.25 9 7.25C9.2125 7.25 9.39075 7.178 9.53475 7.034C9.67825 6.8905 9.75 6.7125 9.75 6.5V5.75C9.75 5.5375 9.67825 5.35925 9.53475 5.21525C9.39075 5.07175 9.2125 5 9 5H6C5.7875 5 5.6095 5.07175 5.466 5.21525C5.322 5.35925 5.25 5.5375 5.25 5.75V10.25C5.25 10.4625 5.322 10.6405 5.466 10.784C5.6095 10.928 5.7875 11 6 11ZM7.5 15.5C6.4625 15.5 5.4875 15.303 4.575 14.909C3.6625 14.5155 2.86875 13.9813 2.19375 13.3063C1.51875 12.6313 0.9845 11.8375 0.591 10.925C0.197 10.0125 0 9.0375 0 8C0 6.9625 0.197 5.9875 0.591 5.075C0.9845 4.1625 1.51875 3.36875 2.19375 2.69375C2.86875 2.01875 3.6625 1.48425 4.575 1.09025C5.4875 0.69675 6.4625 0.5 7.5 0.5C8.5375 0.5 9.5125 0.69675 10.425 1.09025C11.3375 1.48425 12.1313 2.01875 12.8063 2.69375C13.4813 3.36875 14.0155 4.1625 14.409 5.075C14.803 5.9875 15 6.9625 15 8C15 9.0375 14.803 10.0125 14.409 10.925C14.0155 11.8375 13.4813 12.6313 12.8063 13.3063C12.1313 13.9813 11.3375 14.5155 10.425 14.909C9.5125 15.303 8.5375 15.5 7.5 15.5ZM7.5 14C9.1625 14 10.5782 13.4158 11.7472 12.2472C12.9158 11.0782 13.5 9.6625 13.5 8C13.5 6.3375 12.9158 4.92175 11.7472 3.75275C10.5782 2.58425 9.1625 2 7.5 2C5.8375 2 4.422 2.58425 3.2535 3.75275C2.0845 4.92175 1.5 6.3375 1.5 8C1.5 9.6625 2.0845 11.0782 3.2535 12.2472C4.422 13.4158 5.8375 14 7.5 14Z" fill="#161616"/>
</svg>
