<svg width="24" height="24" viewBox="0 0 24 24" fill="none" xmlns="http://www.w3.org/2000/svg">
<path d="M22.0575 6.945C21.938 6.50103 21.704 6.09624 21.3789 5.77113C21.0538 5.44602 20.649 5.212 20.205 5.0925C18.57 4.65 12 4.65 12 4.65C12 4.65 5.43002 4.65 3.79501 5.0925C3.35104 5.212 2.94625 5.44602 2.62114 5.77113C2.29603 6.09624 2.06202 6.50103 1.94251 6.945C1.63722 8.61245 1.48907 10.3049 1.50002 12C1.48907 13.6951 1.63722 15.3876 1.94251 17.055C2.06202 17.499 2.29603 17.9038 2.62114 18.2289C2.94625 18.554 3.35104 18.788 3.79501 18.9075C5.43002 19.35 12 19.35 12 19.35C12 19.35 18.57 19.35 20.205 18.9075C20.649 18.788 21.0538 18.554 21.3789 18.2289C21.704 17.9038 21.938 17.499 22.0575 17.055C22.3628 15.3876 22.511 13.6951 22.5 12C22.511 10.3049 22.3628 8.61245 22.0575 6.945ZM9.90001 15.15V8.85L15.3525 12L9.90001 15.15Z" fill="black"/>
</svg>
